<?xml version="1.0" encoding="UTF-8"?>
<svg version="1.1" xmlns="http://www.w3.org/2000/svg" width="500" height="500">
<path d="M0 0 C1.22101913 -0.00503792 1.22101913 -0.00503792 2.46670532 -0.01017761 C5.14017287 -0.01962522 7.81357737 -0.02162761 10.48706055 -0.02270508 C12.35882085 -0.02592201 14.23058091 -0.02928641 16.1023407 -0.03279114 C20.02021873 -0.03876697 23.93807476 -0.04063263 27.85595703 -0.04003906 C32.85562311 -0.03993754 37.85514685 -0.0535863 42.85477924 -0.07081127 C46.71972796 -0.08197547 50.58464275 -0.08395691 54.44960594 -0.08342934 C56.29183632 -0.08460293 58.13406776 -0.0889895 59.97628212 -0.0967617 C75.83627608 -0.15741024 90.65768368 0.31964108 102.9362793 11.89526367 C115.57926571 25.77363545 116.06035318 40.6085958 115.95239258 58.47192383 C115.93631509 61.63821503 115.95229967 64.80323004 115.97143555 67.96948242 C115.99114024 87.60762006 115.99114024 87.60762006 112.5612793 97.14526367 C112.3025 97.87575928 112.0437207 98.60625488 111.77709961 99.35888672 C108.2189584 108.54913344 98.73660034 116.27205664 90.0456543 120.24291992 C84.37344879 122.30310777 79.1552198 123.44747102 73.1237793 123.77026367 C72.01800537 123.83370972 72.01800537 123.83370972 70.88989258 123.8984375 C65.435625 124.15849784 60.00677007 124.11700907 54.54956055 123.99291992 C53.11849785 123.96754672 51.68742667 123.94264824 50.25634766 123.91821289 C47.41244563 123.86939914 44.57353194 123.77982442 41.73144531 123.66918945 C33.19377863 123.41714079 33.19377863 123.41714079 25.7253418 127.16479492 C24.85449951 127.99587769 24.85449951 127.99587769 23.96606445 128.84375 C22.5612793 130.14526367 22.5612793 130.14526367 20.5612793 130.14526367 C20.5612793 130.80526367 20.5612793 131.46526367 20.5612793 132.14526367 C19.1003418 133.43432617 19.1003418 133.43432617 17.1862793 134.77026367 C16.55979492 135.2162793 15.93331055 135.66229492 15.2878418 136.12182617 C13.5612793 137.14526367 13.5612793 137.14526367 11.5612793 137.14526367 C11.5612793 137.80526367 11.5612793 138.46526367 11.5612793 139.14526367 C9.86317176 140.5242441 8.10092471 141.82485845 6.3112793 143.08276367 C5.33674805 143.77241211 4.3622168 144.46206055 3.3581543 145.17260742 C1.97370117 146.14907227 1.97370117 146.14907227 0.5612793 147.14526367 C-0.50606445 148.02311523 -0.50606445 148.02311523 -1.5949707 148.91870117 C-3.4387207 150.14526367 -3.4387207 150.14526367 -6.6887207 149.83276367 C-8.0499707 149.49245117 -8.0499707 149.49245117 -9.4387207 149.14526367 C-10.458452 146.08606979 -10.55405672 144.02108343 -10.53637695 140.82104492 C-10.5331543 139.79301758 -10.52993164 138.76499023 -10.52661133 137.70581055 C-10.51404297 136.09802734 -10.51404297 136.09802734 -10.5012207 134.45776367 C-10.49670898 133.37430664 -10.49219727 132.29084961 -10.48754883 131.17456055 C-10.47575813 128.49807282 -10.45930134 125.8216959 -10.4387207 123.14526367 C-12.26790039 122.95963867 -12.26790039 122.95963867 -14.1340332 122.77026367 C-24.08829357 121.50901115 -31.78648664 115.36046746 -38.4387207 108.14526367 C-45.8801538 98.30690581 -47.9055821 88.12302725 -47.87231445 75.99682617 C-47.8775563 74.86304535 -47.88279816 73.72926453 -47.88819885 72.56112671 C-47.8945879 70.17609471 -47.89332278 67.79103107 -47.88476562 65.40600586 C-47.87626065 61.78726213 -47.90505577 58.17010181 -47.93676758 54.55151367 C-47.93838017 52.22078497 -47.93780095 49.89005352 -47.93481445 47.55932617 C-47.94604843 46.49332184 -47.95728241 45.4273175 -47.96885681 44.32901001 C-47.85489948 31.84214949 -43.88581811 21.37881497 -35.4387207 12.14526367 C-25.00857254 2.97627722 -13.60727278 -0.00817925 0 0 Z M-22.4387207 25.14526367 C-26.31587505 30.85490391 -28.5416701 35.91339958 -28.59985352 42.84692383 C-28.60946106 43.77534088 -28.6190686 44.70375793 -28.62896729 45.66030884 C-28.63321716 46.65823456 -28.63746704 47.65616028 -28.6418457 48.68432617 C-28.64754578 49.7203598 -28.65324585 50.75639343 -28.65911865 51.82382202 C-28.66856182 54.01771018 -28.67509992 56.21161248 -28.67895508 58.40551758 C-28.68862414 61.73699249 -28.71963945 65.06784069 -28.7512207 68.39916992 C-28.75775494 70.53588503 -28.76300376 72.67260453 -28.7668457 74.80932617 C-28.7791925 75.79510651 -28.79153931 76.78088684 -28.80426025 77.79653931 C-28.77202165 87.97301213 -26.76815458 95.82938501 -19.6105957 103.23510742 C-13.79057738 108.3537926 -8.13951193 109.43397673 -0.4387207 111.14526367 C-0.1087207 118.07526367 0.2212793 125.00526367 0.5612793 132.14526367 C4.14340939 130.35419863 7.32730581 128.49724439 10.5612793 126.14526367 C10.5612793 125.48526367 10.5612793 124.82526367 10.5612793 124.14526367 C11.08463867 123.91967773 11.60799805 123.6940918 12.1472168 123.46166992 C15.42387173 121.6748856 18.26566111 119.38731396 21.1862793 117.08276367 C28.89211894 111.0318125 28.89211894 111.0318125 33.91577148 110.97167969 C34.81720886 110.95818985 35.71864624 110.94470001 36.6473999 110.93080139 C37.62444885 110.92036301 38.6014978 110.90992462 39.6081543 110.89916992 C41.6706584 110.86622241 43.73315829 110.83301092 45.7956543 110.79956055 C49.05213434 110.75220516 52.30859844 110.70779606 55.56518555 110.66845703 C58.70469311 110.62864098 61.84384439 110.57710872 64.9831543 110.52416992 C65.95210632 110.51575577 66.92105835 110.50734161 67.91937256 110.49867249 C74.74648312 110.37437156 80.0745476 109.32849738 85.9362793 105.64526367 C86.62463867 105.22245117 87.31299805 104.79963867 88.0222168 104.36401367 C88.78405273 103.76073242 88.78405273 103.76073242 89.5612793 103.14526367 C89.5612793 102.48526367 89.5612793 101.82526367 89.5612793 101.14526367 C90.2212793 101.14526367 90.8812793 101.14526367 91.5612793 101.14526367 C92.54291352 99.20901269 93.52150384 97.27121829 94.4987793 95.33276367 C95.31668945 93.7143457 95.31668945 93.7143457 96.15112305 92.06323242 C97.89707904 88.45040935 98.68803732 85.72408856 98.73828125 81.7565918 C98.75111649 80.87136841 98.76395172 79.98614502 98.7771759 79.07409668 C98.78456284 78.11789429 98.79194977 77.16169189 98.79956055 76.17651367 C98.81166817 74.69048645 98.81166817 74.69048645 98.82402039 73.17443848 C98.83785911 71.07293444 98.84858221 68.97140794 98.85644531 66.86987305 C98.87356472 63.68518101 98.91744195 60.50155274 98.96166992 57.31713867 C98.97180561 55.27027127 98.98031896 53.22339507 98.98706055 51.17651367 C99.01332268 49.76650085 99.01332268 49.76650085 99.04011536 48.32800293 C99.01174425 39.49887565 96.57075188 31.47419209 91.5612793 24.14526367 C90.9012793 24.14526367 90.2412793 24.14526367 89.5612793 24.14526367 C89.5612793 23.48526367 89.5612793 22.82526367 89.5612793 22.14526367 C88.9012793 22.14526367 88.2412793 22.14526367 87.5612793 22.14526367 C87.5612793 21.48526367 87.5612793 20.82526367 87.5612793 20.14526367 C86.5300293 19.52651367 85.4987793 18.90776367 84.4362793 18.27026367 C83.85620117 17.9222168 83.27612305 17.57416992 82.6784668 17.21557617 C77.43195817 14.56328214 72.60197591 13.84722213 66.78686523 13.85473633 C66.03151993 13.8480191 65.27617462 13.84130188 64.49794006 13.8343811 C62.01377688 13.8154658 59.52988491 13.81147993 57.0456543 13.80932617 C55.30698539 13.80289274 53.56831756 13.79616397 51.82965088 13.78915405 C48.18824761 13.77719671 44.54693909 13.77347154 40.90551758 13.7746582 C36.26098626 13.77486107 31.61706903 13.74758561 26.97268295 13.71311378 C23.3813605 13.69076961 19.79018395 13.68682299 16.19879913 13.68787766 C14.48773334 13.68553198 12.7766629 13.67676725 11.0656662 13.66121292 C-2.17368118 13.55214295 -13.20141444 14.63526188 -22.4387207 25.14526367 Z " fill="#5AC650" transform="translate(203.438720703125,166.854736328125)"/>
<path d="M0 0 C1.98 0.66 3.96 1.32 6 2 C6 2.66 6 3.32 6 4 C6.70125 4.185625 7.4025 4.37125 8.125 4.5625 C14.90607766 7.95303883 18.97944755 15.27450618 22 22 C24.60887063 30.03556402 25.4574515 37.68074517 25.43359375 46.08984375 C25.4388356 47.19622696 25.44407745 48.30261017 25.44947815 49.44252014 C25.45585395 51.76432462 25.4546196 54.08616159 25.44604492 56.40795898 C25.4375289 59.9255619 25.46637147 63.44154086 25.49804688 66.95898438 C25.55194592 83.70740729 24.73231268 97.00683769 13 110 C10.48407847 112.30027111 7.88475517 114.19190801 5 116 C4.43667969 116.38800781 3.87335938 116.77601563 3.29296875 117.17578125 C-0.11571157 119.37106717 -3.23737154 120.36507423 -7.2265625 121.109375 C-8.12197754 121.27920898 -9.01739258 121.44904297 -9.93994141 121.62402344 C-10.61976074 121.7480957 -11.29958008 121.87216797 -12 122 C-11.98952637 122.63502441 -11.97905273 123.27004883 -11.96826172 123.92431641 C-11.92647533 126.8245034 -11.90060229 129.72462682 -11.875 132.625 C-11.85824219 133.62402344 -11.84148437 134.62304688 -11.82421875 135.65234375 C-11.78985754 140.84088709 -11.89745063 145.14923649 -14 150 C-18.75 149.125 -18.75 149.125 -21 148 C-21 147.34 -21 146.68 -21 146 C-21.66 146 -22.32 146 -23 146 C-23 145.34 -23 144.68 -23 144 C-23.52464844 143.79375 -24.04929687 143.5875 -24.58984375 143.375 C-28.04383993 141.40448678 -30.69593062 138.7343654 -33.5625 136 C-34.70785882 134.91478852 -35.85493432 133.83138535 -37.00390625 132.75 C-37.50736572 132.27046875 -38.0108252 131.7909375 -38.52954102 131.296875 C-40.17879325 129.78377818 -40.17879325 129.78377818 -43 128 C-43 127.34 -43 126.68 -43 126 C-43.9590625 125.5359375 -43.9590625 125.5359375 -44.9375 125.0625 C-47 124 -47 124 -48 123 C-49.77903357 122.87677242 -51.56286203 122.82210981 -53.34594727 122.79467773 C-54.4870546 122.77473251 -55.62816193 122.75478729 -56.80384827 122.73423767 C-58.66631447 122.70916893 -58.66631447 122.70916893 -60.56640625 122.68359375 C-62.46204567 122.6524221 -62.46204567 122.6524221 -64.39598083 122.62062073 C-67.76118633 122.56616286 -71.12640173 122.5159572 -74.49169922 122.46777344 C-77.92355901 122.41760241 -81.35532831 122.36189345 -84.78710938 122.30664062 C-91.52466761 122.19929809 -98.26229336 122.09755675 -105 122 C-103.11073254 117.77990569 -100.21305547 115.37209513 -96.6875 112.5 C-95.83381836 111.79037109 -95.83381836 111.79037109 -94.96289062 111.06640625 C-93.31606207 109.70129693 -91.66232637 108.34619568 -90 107 C-89.34136963 106.29560791 -88.68273926 105.59121582 -88.00415039 104.86547852 C-83.39611134 102.00403793 -78.99145722 102.45508887 -73.671875 102.49609375 C-72.01650726 102.4819619 -72.01650726 102.4819619 -70.32769775 102.46754456 C-66.80160985 102.43888844 -63.27619491 102.43581559 -59.75 102.4375 C-56.23818519 102.43388355 -52.72686207 102.4242279 -49.21514893 102.39674377 C-47.03255356 102.380061 -44.84979712 102.37699571 -42.66717529 102.38975525 C-30.74731904 102.30805263 -19.65063874 98.09102654 -10.76171875 89.96875 C2.17453688 75.51226921 2.48696643 59.208471 2.33618164 40.78491211 C2.31241214 37.67600867 2.3156638 34.56795687 2.32226562 31.45898438 C2.31669242 29.45572412 2.30958481 27.45246741 2.30078125 25.44921875 C2.30169266 24.53339523 2.30260406 23.61757172 2.30354309 22.67399597 C2.24777875 17.55454702 1.72575827 12.91039219 0.43913269 7.94929504 C-0.16200197 5.28087877 -0.13952488 2.7207351 0 0 Z " fill="#11A697" transform="translate(319,190)"/>
<path d="M0 0 C0.99 0.495 0.99 0.495 2 1 C1.67 2.98 1.34 4.96 1 7 C2.98 7.495 2.98 7.495 5 8 C5.185625 6.824375 5.185625 6.824375 5.375 5.625 C6 3 6 3 8 1 C8.99 1.33 9.98 1.66 11 2 C8.71648865 9.99228973 4.61739191 15.15020343 -2.5 19.54296875 C-9.60337884 23.23542635 -16.41474542 25.19563553 -24.4375 25.625 C-25.54327393 25.68844604 -25.54327393 25.68844604 -26.67138672 25.75317383 C-32.1256543 26.01323417 -37.55450922 25.9717454 -43.01171875 25.84765625 C-44.44278144 25.82228305 -45.87385263 25.79738457 -47.30493164 25.77294922 C-50.14883366 25.72413547 -52.98774735 25.63456075 -55.82983398 25.52392578 C-64.36750067 25.27187712 -64.36750067 25.27187712 -71.8359375 29.01953125 C-72.41649902 29.57358643 -72.99706055 30.1276416 -73.59521484 30.69848633 C-75 32 -75 32 -77 32 C-77 32.66 -77 33.32 -77 34 C-78.4609375 35.2890625 -78.4609375 35.2890625 -80.375 36.625 C-81.00148437 37.07101562 -81.62796875 37.51703125 -82.2734375 37.9765625 C-84 39 -84 39 -86 39 C-86 39.66 -86 40.32 -86 41 C-87.69810754 42.37898043 -89.46035459 43.67959478 -91.25 44.9375 C-92.22453125 45.62714844 -93.1990625 46.31679688 -94.203125 47.02734375 C-95.12609375 47.67832031 -96.0490625 48.32929688 -97 49 C-97.65484375 49.59941406 -98.3096875 50.19882812 -98.984375 50.81640625 C-101 52 -101 52 -107 51 C-107 41.43 -107 31.86 -107 22 C-109.64 22 -112.28 22 -115 22 C-115 21.34 -115 20.68 -115 20 C-115.680625 20.103125 -116.36125 20.20625 -117.0625 20.3125 C-120.76230098 19.91890415 -122.4928187 18.46158515 -125.3515625 16.19140625 C-127.10556907 14.79846811 -127.10556907 14.79846811 -130 14 C-130 12.02 -130 10.04 -130 8 C-128.68 8.33 -127.36 8.66 -126 9 C-125.67 7.68 -125.34 6.36 -125 5 C-124.34 5 -123.68 5 -123 5 C-123 4.01 -123 3.02 -123 2 C-118.75241944 2.37478652 -116.84971549 3.94432661 -113.734375 6.73046875 C-110.53011073 9.07593246 -106.77124822 9.91262343 -103 11 C-101.02 11.66 -99.04 12.32 -97 13 C-97 19.93 -97 26.86 -97 34 C-94.36 32.02 -91.72 30.04 -89 28 C-88.34 28 -87.68 28 -87 28 C-87 27.34 -87 26.68 -87 26 C-85.12890625 24.265625 -85.12890625 24.265625 -82.5625 22.25 C-81.73878906 21.59515625 -80.91507813 20.9403125 -80.06640625 20.265625 C-79.05449219 19.51796875 -78.04257813 18.7703125 -77 18 C-76.37598297 17.50238159 -75.75196594 17.00476318 -75.10903931 16.49206543 C-69.12013948 12.02782657 -64.63756755 11.14528289 -57.26953125 11.265625 C-55.778451 11.25218048 -55.778451 11.25218048 -54.25724792 11.23846436 C-51.10837885 11.21452435 -47.96137081 11.23020641 -44.8125 11.25 C-41.65340848 11.2485543 -38.49464579 11.23862964 -35.33561707 11.21868896 C-33.37788866 11.20854442 -31.42005355 11.21012727 -29.46235657 11.22515869 C-22.46583092 11.22120668 -17.32294749 9.9559449 -11.25 6.375 C-7.21387283 4 -7.21387283 4 -5 4 C-4.67 3.34 -4.34 2.68 -4 2 C-2.0625 0.8125 -2.0625 0.8125 0 0 Z " fill="#38AB51" transform="translate(301,265)"/>
<path d="M0 0 C0.33 0 0.66 0 1 0 C1.60602151 5.75720437 -0.11391509 11.04733577 -3 16 C-5.140625 17.296875 -5.140625 17.296875 -7 18 C-7 18.99 -7 19.98 -7 21 C-7.66 21 -8.32 21 -9 21 C-9 21.66 -9 22.32 -9 23 C-9.66 23 -10.32 23 -11 23 C-11.226875 23.61875 -11.45375 24.2375 -11.6875 24.875 C-13.38416443 27.6219805 -15.05251711 27.86635273 -18 29 C-18.495 30.485 -18.495 30.485 -19 32 C-21.46875 33.1328125 -21.46875 33.1328125 -24.5 34.125 C-28.02905707 35.07770038 -28.02905707 35.07770038 -31 37 C-32.58445433 37.09150402 -34.17292183 37.11462229 -35.76000977 37.11010742 C-36.7751918 37.11068649 -37.79037384 37.11126556 -38.83631897 37.11186218 C-39.94349777 37.10975235 -41.05067657 37.10764252 -42.19140625 37.10546875 C-44.52149359 37.11893184 -46.85157234 37.13395626 -49.18164062 37.15039062 C-52.86626741 37.1731791 -56.54993157 37.18754262 -60.23461914 37.17504883 C-63.78342072 37.16620967 -67.33030317 37.19520159 -70.87890625 37.23046875 C-71.97191544 37.21823776 -73.06492462 37.20600677 -74.1910553 37.19340515 C-80.75638457 37.29682954 -84.4919216 38.21889898 -89.38316345 42.71455383 C-91 44 -91 44 -94 44 C-94 44.66 -94 45.32 -94 46 C-93.4406778 46.00586624 -92.88135559 46.01173248 -92.30508423 46.01777649 C-86.49764784 46.08157787 -80.69077247 46.16596184 -74.88378906 46.26245117 C-72.71491886 46.29576091 -70.54596071 46.32377379 -68.37695312 46.34643555 C-65.26394062 46.37987055 -62.1517386 46.43218013 -59.0390625 46.48828125 C-57.57806625 46.49786613 -57.57806625 46.49786613 -56.08755493 46.50764465 C-54.73638077 46.53733589 -54.73638077 46.53733589 -53.35791016 46.56762695 C-52.56293121 46.57873001 -51.76795227 46.58983307 -50.94888306 46.60127258 C-49 47 -49 47 -47 50 C-77.195 49.505 -77.195 49.505 -108 49 C-105.85087703 44.70175405 -103.31657636 42.45642846 -99.6875 39.5 C-99.11837891 39.02691406 -98.54925781 38.55382812 -97.96289062 38.06640625 C-96.31606207 36.70129693 -94.66232637 35.34619568 -93 34 C-92.34136963 33.29560791 -91.68273926 32.59121582 -91.00415039 31.86547852 C-86.39611134 29.00403793 -81.99145722 29.45508887 -76.671875 29.49609375 C-75.56829651 29.48667252 -74.46471802 29.47725128 -73.32769775 29.46754456 C-69.80160985 29.43888844 -66.27619491 29.43581559 -62.75 29.4375 C-59.23818519 29.43388355 -55.72686207 29.4242279 -52.21514893 29.39674377 C-50.03255356 29.380061 -47.84979712 29.37699571 -45.66717529 29.38975525 C-31.61667186 29.29344847 -20.3115038 23.42173595 -10.52734375 13.5078125 C-10.08519531 13.05148437 -9.64304687 12.59515625 -9.1875 12.125 C-7 10 -7 10 -5 10 C-4.731875 9.46375 -4.46375 8.9275 -4.1875 8.375 C-2.09375 4.1875 -2.09375 4.1875 0 0 Z " fill="#0A7F83" transform="translate(322,263)"/>
<path d="M0 0 C4.24562858 0.37461429 6.14725567 1.94205545 9.26171875 4.7265625 C13.67281543 7.95806254 19.67887195 9.14175354 25 10 C24.67 10.66 24.34 11.32 24 12 C23.91550372 13.7404417 23.89276976 15.48409722 23.90234375 17.2265625 C23.90717773 18.7734375 23.90717773 18.7734375 23.91210938 20.3515625 C23.92048828 21.43179687 23.92886719 22.51203125 23.9375 23.625 C23.94201172 24.71296875 23.94652344 25.8009375 23.95117188 26.921875 C23.96298224 29.61463789 23.97945222 32.30729188 24 35 C26.97 34.505 26.97 34.505 30 34 C31.125 38.75 31.125 38.75 30 41 C29.01 41 28.02 41 27 41 C27 41.99 27 42.98 27 44 C26.01 44 25.02 44 24 44 C23.34 45.98 22.68 47.96 22 50 C20.02 49.67 18.04 49.34 16 49 C16 39.43 16 29.86 16 20 C13.36 20 10.72 20 8 20 C8 19.34 8 18.68 8 18 C7.319375 18.103125 6.63875 18.20625 5.9375 18.3125 C2.23769902 17.91890415 0.5071813 16.46158515 -2.3515625 14.19140625 C-4.10556907 12.79846811 -4.10556907 12.79846811 -7 12 C-7 10.02 -7 8.04 -7 6 C-5.68 6.33 -4.36 6.66 -3 7 C-2.67 5.68 -2.34 4.36 -2 3 C-1.34 3 -0.68 3 0 3 C0 2.01 0 1.02 0 0 Z " fill="#33B050" transform="translate(178,267)"/>
<path d="M0 0 C3.76456766 2.06682146 7.05213977 4.10427955 9 8 C9.4085132 12.28938857 9.48025674 14.86254983 7.8125 18.8125 C4.7284599 22.53461736 2.32756847 23.85776052 -2.5 24.375 C-7.10721787 23.88136951 -9.51014031 22.48985969 -12.75 19.25 C-14.50473579 16.09147558 -14.8756402 13.60643419 -15 10 C-12.67585566 3.02756699 -7.51412911 -1.25235485 0 0 Z " fill="#4CBC4E" transform="translate(207,218)"/>
<path d="M0 0 C3.76456766 2.06682146 7.05213977 4.10427955 9 8 C9.54897239 12.86232692 9.5113954 15.01373745 7.25 19.375 C4.04488775 23.11429763 2.51572372 23.85965521 -2.375 24.3125 C-6.44980478 23.96122373 -8.65481949 23.35683172 -12 21 C-14.25758412 17.21308471 -15.01356233 14.78661538 -14.9375 10.375 C-13.70737247 5.94654088 -11.89214307 3.32450015 -8.125 0.6875 C-5.18445523 -0.26385272 -3.08192861 -0.36983143 0 0 Z " fill="#4DC049" transform="translate(275,218)"/>
<path d="M0 0 C2.90996544 1.86185708 5.42868293 3.85736586 7 7 C7.54399285 11.539219 7.62289461 14.9544269 5.25 18.9375 C1.91079715 21.99843595 0.18234266 22.89052383 -4.375 23.3125 C-8.44980478 22.96122373 -10.65481949 22.35683172 -14 20 C-16.25758412 16.21308471 -17.01356233 13.78661538 -16.9375 9.375 C-15.6453439 4.72323804 -13.85327634 2.10194809 -9.6875 -0.375 C-6.04086863 -1.22305381 -3.62591102 -0.95418711 0 0 Z " fill="#4ABD4B" transform="translate(243,219)"/>
<path d="M0 0 C1.58750313 0.00848969 1.58750313 0.00848969 3.20707703 0.01715088 C6.57992201 0.03950152 9.95169605 0.08969724 13.32421875 0.140625 C15.61391693 0.16069162 17.90363179 0.1789421 20.19335938 0.1953125 C25.79984319 0.23936195 31.40570445 0.30626146 37.01171875 0.390625 C37.01171875 1.050625 37.01171875 1.710625 37.01171875 2.390625 C22.82171875 2.720625 8.63171875 3.050625 -5.98828125 3.390625 C-6.97828125 5.700625 -7.96828125 8.010625 -8.98828125 10.390625 C-13.09084535 14.390625 -13.09084535 14.390625 -16.98828125 14.390625 C-16.98828125 15.050625 -16.98828125 15.710625 -16.98828125 16.390625 C-16.14929794 16.39942436 -16.14929794 16.39942436 -15.29336548 16.40840149 C-9.48592909 16.47220287 -3.67905372 16.55658684 2.12792969 16.65307617 C4.29679989 16.68638591 6.46575804 16.71439879 8.63476562 16.73706055 C11.74777813 16.77049555 14.85998015 16.82280513 17.97265625 16.87890625 C19.4336525 16.88849113 19.4336525 16.88849113 20.92416382 16.89826965 C22.27533798 16.92796089 22.27533798 16.92796089 23.65380859 16.95825195 C24.44878754 16.96935501 25.24376648 16.98045807 26.06283569 16.99189758 C28.01171875 17.390625 28.01171875 17.390625 30.01171875 20.390625 C-0.18328125 19.895625 -0.18328125 19.895625 -30.98828125 19.390625 C-28.83915828 15.09237905 -26.30485761 12.84705346 -22.67578125 9.890625 C-22.10666016 9.41753906 -21.53753906 8.94445312 -20.95117188 8.45703125 C-19.30434332 7.09192193 -17.65060762 5.73682068 -15.98828125 4.390625 C-15.3226416 3.68389648 -14.65700195 2.97716797 -13.97119141 2.24902344 C-9.44420212 -0.5713598 -5.22646573 -0.1053583 0 0 Z " fill="#338A8C" transform="translate(244.98828125,292.609375)"/>
<path d="M0 0 C1.98 0.66 3.96 1.32 6 2 C6 2.66 6 3.32 6 4 C6.70125 4.185625 7.4025 4.37125 8.125 4.5625 C14.90607766 7.95303883 18.97944755 15.27450618 22 22 C24.60887063 30.03556402 25.4574515 37.68074517 25.43359375 46.08984375 C25.4388356 47.19622696 25.44407745 48.30261017 25.44947815 49.44252014 C25.45585395 51.76432462 25.4546196 54.08616159 25.44604492 56.40795898 C25.4375289 59.9255619 25.46637147 63.44154086 25.49804688 66.95898438 C25.57001376 90.22696966 25.57001376 90.22696966 21 99 C20.01 99.495 20.01 99.495 19 100 C19.87337831 92.72184743 19.87337831 92.72184743 20.4765625 89.28320312 C22.40332631 77.7729462 22.44853422 66.26806487 22.625 54.625 C22.66326963 52.52081876 22.70232624 50.41665169 22.7421875 48.3125 C22.83719071 43.2084511 22.92156995 38.10432936 23 33 C21.35 33 19.7 33 18 33 C18.33 32.34 18.66 31.68 19 31 C19.18794703 26.86516531 18.7733536 23.06010642 18 19 C17.34 19 16.68 19 16 19 C16 18.34 16 17.68 16 17 C15.01 17.33 14.02 17.66 13 18 C11.9375 16.125 11.9375 16.125 11 14 C11.33 13.34 11.66 12.68 12 12 C10.35 12 8.7 12 7 12 C6.34 13.32 5.68 14.64 5 16 C4.01 15.67 3.02 15.34 2 15 C0.1378492 10.2699378 -0.25833731 5.03757758 0 0 Z " fill="#60C1A8" transform="translate(319,190)"/>
<path d="M0 0 C1.22101913 -0.00503792 1.22101913 -0.00503792 2.46670532 -0.01017761 C5.14017287 -0.01962522 7.81357737 -0.02162761 10.48706055 -0.02270508 C12.35882085 -0.02592201 14.23058091 -0.02928641 16.1023407 -0.03279114 C20.02021873 -0.03876697 23.93807476 -0.04063263 27.85595703 -0.04003906 C32.85562311 -0.03993754 37.85514685 -0.0535863 42.85477924 -0.07081127 C46.71972796 -0.08197547 50.58464275 -0.08395691 54.44960594 -0.08342934 C56.29183632 -0.08460293 58.13406776 -0.0889895 59.97628212 -0.0967617 C82.28839335 -0.1820831 82.28839335 -0.1820831 91.5612793 4.14526367 C90.5712793 4.80526367 89.5812793 5.46526367 88.5612793 6.14526367 C88.5612793 5.48526367 88.5612793 4.82526367 88.5612793 4.14526367 C87.36889648 4.15686523 86.17651367 4.1684668 84.94799805 4.18041992 C83.38159336 4.18979959 81.81518698 4.1988996 80.2487793 4.20776367 C79.07025391 4.22033203 79.07025391 4.22033203 77.86791992 4.2331543 C77.1105957 4.23637695 76.35327148 4.23959961 75.57299805 4.24291992 C74.52825317 4.25077515 74.52825317 4.25077515 73.46240234 4.25878906 C71.5612793 4.14526367 71.5612793 4.14526367 68.5612793 3.14526367 C66.06766583 3.04427869 63.60194057 2.99841684 61.1081543 3 C60.35175659 2.99664139 59.59535889 2.99328278 58.81604004 2.98982239 C56.31443645 2.98031926 53.81289981 2.97836975 51.3112793 2.97729492 C49.57397433 2.97408244 47.83666963 2.97071838 46.09936523 2.96720886 C42.45775729 2.96121958 38.81617307 2.95936881 35.17456055 2.95996094 C30.50366061 2.96006267 25.8329123 2.9463978 21.16204834 2.92918873 C17.57445575 2.91808323 13.98690002 2.91604126 10.39929199 2.91657066 C8.67687455 2.91538884 6.95445622 2.91095579 5.23205566 2.9032383 C2.82606293 2.89346545 0.42040212 2.89630537 -1.9855957 2.90234375 C-2.69945435 2.89672424 -3.41331299 2.89110474 -4.14880371 2.88531494 C-7.81017709 2.9087226 -9.30272259 3.05459827 -12.4387207 5.14526367 C-14.42120786 5.86233349 -16.4228742 6.5281678 -18.4387207 7.14526367 C-19.4287207 7.45463867 -19.4287207 7.45463867 -20.4387207 7.77026367 C-23.12118256 8.27322527 -25.71714284 8.20711771 -28.4387207 8.14526367 C-26.11790104 5.5079686 -23.94347959 4.30397292 -20.6887207 3.02026367 C-19.86887695 2.68768555 -19.0490332 2.35510742 -18.2043457 2.01245117 C-12.22468677 0.13747337 -6.204585 -0.00372954 0 0 Z " fill="#C9E5BF" transform="translate(203.438720703125,166.854736328125)"/>
<path d="M0 0 C2.97 0 5.94 0 9 0 C9 6.93 9 13.86 9 21 C11.64 19.02 14.28 17.04 17 15 C17.66 15 18.32 15 19 15 C19 14.34 19 13.68 19 13 C20.94140625 11.23046875 20.94140625 11.23046875 23.5625 9.1875 C24.46871094 8.47980469 25.37492187 7.77210938 26.30859375 7.04296875 C29.49465061 4.62452501 32.71651645 2.28416247 36 0 C36.99 0.66 37.98 1.32 39 2 C37.35 2.33 35.7 2.66 34 3 C34 3.99 34 4.98 34 6 C32.68 6.33 31.36 6.66 30 7 C29.855625 7.61875 29.71125 8.2375 29.5625 8.875 C29 11 29 11 28 13 C26.67532254 13.6837045 25.34136367 14.34964186 24 15 C21.85279101 17.14720899 21.4565779 18.07790143 21 21 C21.33 21.66 21.66 22.32 22 23 C20.81230494 27.69644124 18.47122883 29.50381766 14.5625 32.1875 C13.59441406 32.86167969 12.62632812 33.53585937 11.62890625 34.23046875 C9.75558158 35.49141388 7.87891031 36.74739313 6 38 C6.33 36.35 6.66 34.7 7 33 C7.99 33 8.98 33 10 33 C10 32.01 10 31.02 10 30 C10.99 30 11.98 30 13 30 C13 28.02 13 26.04 13 24 C11.02 24 9.04 24 7 24 C7 16.41 7 8.82 7 1 C4.69 1 2.38 1 0 1 C0 0.67 0 0.34 0 0 Z " fill="#3EA55C" transform="translate(195,278)"/>
<path d="M0 0 C0.33 0 0.66 0 1 0 C1.60602151 5.75720437 -0.11391509 11.04733577 -3 16 C-5.140625 17.296875 -5.140625 17.296875 -7 18 C-7 18.99 -7 19.98 -7 21 C-7.66 21 -8.32 21 -9 21 C-9 21.66 -9 22.32 -9 23 C-9.66 23 -10.32 23 -11 23 C-11.226875 23.61875 -11.45375 24.2375 -11.6875 24.875 C-13.38416443 27.6219805 -15.05251711 27.86635273 -18 29 C-18.33 29.99 -18.66 30.98 -19 32 C-22.91390601 33.47694566 -25.99434629 34.60226148 -30 33 C-28.515 32.505 -28.515 32.505 -27 32 C-27.33 31.34 -27.66 30.68 -28 30 C-30.52733235 29.34444881 -30.52733235 29.34444881 -33 29 C-32.22269531 28.63455078 -32.22269531 28.63455078 -31.4296875 28.26171875 C-22.66301377 23.70924992 -15.14547178 18.76270119 -9 11 C-7.67637791 10.62998182 -6.34285218 10.29263785 -5 10 C-3.84077872 8.26857146 -3.84077872 8.26857146 -3 6 C-2 4 -1 2 0 0 Z " fill="#078A8B" transform="translate(322,263)"/>
<path d="M0 0 C2.1875 0.3125 2.1875 0.3125 4 1 C3.835 1.639375 3.67 2.27875 3.5 2.9375 C2.96073333 4.80826821 2.96073333 4.80826821 3 6 C3.99 6.495 3.99 6.495 5 7 C5 7.66 5 8.32 5 9 C5.763125 9.2475 6.52625 9.495 7.3125 9.75 C10.2364045 11.10995558 11.30004356 12.31585826 13 15 C12.01 15.33 11.02 15.66 10 16 C10 15.34 10 14.68 10 14 C9.34 14 8.68 14 8 14 C8 13.34 8 12.68 8 12 C7.154375 11.731875 6.30875 11.46375 5.4375 11.1875 C2 10 2 10 -1.22184753 8.45004272 C-5.07685262 6.79112093 -8.73109785 6.57564257 -12.88793945 6.61181641 C-13.64343079 6.60655945 -14.39892212 6.60130249 -15.17730713 6.59588623 C-17.65618028 6.58276442 -20.1344024 6.59139886 -22.61328125 6.6015625 C-24.35052106 6.59953888 -26.08776003 6.59662504 -27.82499695 6.59286499 C-31.46048088 6.58845168 -35.0957431 6.59483824 -38.73120117 6.60888672 C-43.36778425 6.6259397 -48.00384478 6.61615588 -52.64040852 6.59816933 C-56.22745114 6.58727178 -59.81437218 6.59080571 -63.40141869 6.5985527 C-65.10967255 6.60054025 -66.81793781 6.59814683 -68.52617836 6.59111404 C-77.37032327 6.56269953 -85.67747666 6.56104881 -94 10 C-94 9.01 -94 8.02 -94 7 C-90.66264934 4.77509956 -89.54481993 4.73871 -85.64575195 4.69702148 C-84.55063797 4.68037949 -83.45552399 4.66373749 -82.32722473 4.64659119 C-81.14287338 4.63817703 -79.95852203 4.62976288 -78.73828125 4.62109375 C-77.51852097 4.60409927 -76.29876068 4.5871048 -75.04203796 4.56959534 C-71.13224506 4.51637401 -67.22246183 4.47616494 -63.3125 4.4375 C-59.42044829 4.39345539 -55.52847564 4.34657745 -51.63652039 4.29469299 C-49.21357644 4.2629599 -46.79056393 4.23600217 -44.36750793 4.21446228 C-38.48045512 4.14297323 -32.82933205 3.79218513 -27 3 C-25.02519491 2.95751077 -23.04882577 2.95694401 -21.07421875 3.0078125 C-20.03072266 3.02457031 -18.98722656 3.04132813 -17.91210938 3.05859375 C-15.74267336 3.1032702 -13.57338089 3.1554875 -11.40429688 3.21484375 C-10.36724609 3.22902344 -9.33019531 3.24320313 -8.26171875 3.2578125 C-6.85345825 3.29092529 -6.85345825 3.29092529 -5.41674805 3.32470703 C-2.54300465 2.93859947 -1.87919059 2.10404801 0 0 Z " fill="#74CA59" transform="translate(283,175)"/>
<path d="M0 0 C0.66 0.33 1.32 0.66 2 1 C1.67 1.99 1.34 2.98 1 4 C0.34 4 -0.32 4 -1 4 C-1.33 4.99 -1.66 5.98 -2 7 C-2.99592119 8.00406224 -3.99625238 9.00376172 -5 10 C-6.12945408 11.861878 -6.12945408 11.861878 -7.0625 13.875 C-7.40152344 14.58011719 -7.74054688 15.28523437 -8.08984375 16.01171875 C-9.14344495 18.31336257 -10.10418457 20.63248779 -11 23 C-11.66666667 24.66666667 -12.33333333 26.33333333 -13 28 C-13.66 28 -14.32 28 -15 28 C-14.87999105 33.13723218 -14.75567144 38.27433731 -14.62768555 43.41137695 C-14.58488951 45.15190945 -14.54318739 46.89246925 -14.50268555 48.63305664 C-14.25017644 59.4473047 -13.83178302 70.2133561 -13 81 C-14.32 80.67 -15.64 80.34 -17 80 C-17.10213068 72.67183451 -17.17177002 65.34385523 -17.21972656 58.01513672 C-17.23973667 55.52646018 -17.26695343 53.03783002 -17.30175781 50.54931641 C-17.35074344 46.95463556 -17.37307583 43.36058087 -17.390625 39.765625 C-17.41127014 38.66825012 -17.43191528 37.57087524 -17.45318604 36.44024658 C-17.45603747 26.43417395 -15.26241628 17.05375263 -9.0625 9 C-8.41410156 8.13375 -7.76570312 7.2675 -7.09765625 6.375 C-4.92229571 3.91202195 -2.62306909 1.97072321 0 0 Z " fill="#74B975" transform="translate(173,175)"/>
<path d="M0 0 C9.17961634 2.5817671 15.36936376 11.17582152 20 19 C23.83396121 26.93475488 24.16486735 34.80824108 24.203125 43.4453125 C24.20882507 44.45157684 24.21452515 45.45784119 24.22039795 46.49459839 C24.22982192 48.6210628 24.23637156 50.74754165 24.24023438 52.87402344 C24.24990497 56.09336528 24.2809393 59.31205867 24.3125 62.53125 C24.42320169 83.95369105 24.42320169 83.95369105 21 92 C20.01 92.99 20.01 92.99 19 94 C19.33 90.7 19.66 87.4 20 84 C20.66 84 21.32 84 22 84 C21.67 65.19 21.34 46.38 21 27 C20.34 27 19.68 27 19 27 C18.34 24.03 17.68 21.06 17 18 C16.34 18 15.68 18 15 18 C14.67 16.02 14.34 14.04 14 12 C13.01 12 12.02 12 11 12 C11 11.34 11 10.68 11 10 C10.401875 9.731875 9.80375 9.46375 9.1875 9.1875 C7.00152146 8.00082594 5.58667406 6.90400887 4 5 C4 4.34 4 3.68 4 3 C2.68 2.67 1.36 2.34 0 2 C0 1.34 0 0.68 0 0 Z " fill="#94BC96" transform="translate(295,172)"/>
<path d="M0 0 C0.33 0 0.66 0 1 0 C1.33 4.29 1.66 8.58 2 13 C3.98 12.67 5.96 12.34 8 12 C9.125 16.75 9.125 16.75 8 19 C7.01 19 6.02 19 5 19 C5 19.99 5 20.98 5 22 C4.01 22 3.02 22 2 22 C1.67 23.65 1.34 25.3 1 27 C-0.875 26.75 -0.875 26.75 -3 26 C-5.58342062 22.41288556 -5.02763135 19.19197131 -4.625 14.9375 C-4.16206019 9.97545791 -4.16206019 9.97545791 -4 5 C-4 3.68 -4 2.36 -4 1 C-2.02 1.495 -2.02 1.495 0 2 C0 1.34 0 0.68 0 0 Z M-2 3 C-1 5 -1 5 -1 5 Z " fill="#26AA4F" transform="translate(200,289)"/>
<path d="M0 0 C3.76456766 2.06682146 7.05213977 4.10427955 9 8 C9.54897239 12.86232692 9.5113954 15.01373745 7.25 19.375 C4.04488775 23.11429763 2.51572372 23.85965521 -2.375 24.3125 C-6.44980478 23.96122373 -8.65481949 23.35683172 -12 21 C-13.52646008 18.65202686 -14.16761622 16.74197008 -15 14 C-14.67 13.01 -14.34 12.02 -14 11 C-13.67 12.65 -13.34 14.3 -13 16 C-12.34 16 -11.68 16 -11 16 C-11 16.66 -11 17.32 -11 18 C-10.01 18 -9.02 18 -8 18 C-8 18.66 -8 19.32 -8 20 C-2.59185986 20.37711536 -2.59185986 20.37711536 2.4375 18.8125 C5.62436893 15.11573204 5.10854335 10.66736424 5 6 C0.49646738 4.24252386 -3.17639811 3.80705592 -8 4 C-8.66 5.65 -9.32 7.3 -10 9 C-11.32 9 -12.64 9 -14 9 C-13.02552263 5.49188148 -12.07842969 4.06595224 -9.25 1.6875 C-5.64944742 -0.18201769 -3.98155017 -0.6635917 0 0 Z " fill="#7DBE77" transform="translate(275,218)"/>
<path d="M0 0 C0.33 0.66 0.66 1.32 1 2 C1.99 2.33 2.98 2.66 4 3 C5.1875 6.5625 5.1875 6.5625 6 10 C6.66 10 7.32 10 8 10 C8 10.99 8 11.98 8 13 C8.66 13 9.32 13 10 13 C10 14.32 10 15.64 10 17 C10.53625 17.0825 11.0725 17.165 11.625 17.25 C14 18 14 18 16.9375 20 C19.82345826 21.88470743 21.63184085 22.60374598 25 23 C25 23.66 25 24.32 25 25 C27.64 25 30.28 25 33 25 C33.96541545 28.18554592 34.05239684 30.88752707 33.87890625 34.203125 C33.83056641 35.1828125 33.78222656 36.1625 33.73242188 37.171875 C33.67634766 38.18765625 33.62027344 39.2034375 33.5625 40.25 C33.51029297 41.28125 33.45808594 42.3125 33.40429688 43.375 C33.27484366 45.91699039 33.13988672 48.45856593 33 51 C32.67 51 32.34 51 32 51 C32 43.41 32 35.82 32 28 C29.36 27.67 26.72 27.34 24 27 C14.98971149 23.98760504 7.09312013 17.38506623 1.375 9.875 C-0.29187811 6.38970941 -0.30536777 3.81709707 0 0 Z " fill="#60B26F" transform="translate(161,262)"/>
<path d="M0 0 C0.66 0.33 1.32 0.66 2 1 C2.10225696 8.16743645 2.1718217 15.33468161 2.21972656 22.50268555 C2.23971822 24.93602529 2.26692074 27.36931775 2.30175781 29.80249023 C2.68365275 57.18098779 2.68365275 57.18098779 -2 66 C-2.99 66.495 -2.99 66.495 -4 67 C-3.12662169 59.72184743 -3.12662169 59.72184743 -2.5234375 56.28320312 C-0.59667369 44.7729462 -0.55146578 33.26806487 -0.375 21.625 C-0.33673037 19.52081876 -0.29767376 17.41665169 -0.2578125 15.3125 C-0.16280929 10.2084511 -0.07843005 5.10432936 0 0 Z " fill="#71C4BB" transform="translate(342,223)"/>
<path d="M0 0 C2.90996544 1.86185708 5.42868293 3.85736586 7 7 C7.53151198 11.5134952 7.86526046 14.89138503 5 18.5625 C4.34 19.036875 3.68 19.51125 3 20 C2.957279 18.33388095 2.95936168 16.66617115 3 15 C3.33 14.67 3.66 14.34 4 14 C3.91062197 12.47480724 3.75462854 10.95318071 3.5625 9.4375 C3.46066406 8.61121094 3.35882813 7.78492188 3.25390625 6.93359375 C3.12822266 5.97646484 3.12822266 5.97646484 3 5 C0.07924603 4.16169704 -2.52664783 3.86472639 -5.5625 3.875 C-6.32691406 3.87242187 -7.09132812 3.86984375 -7.87890625 3.8671875 C-10.18998495 3.92092616 -10.18998495 3.92092616 -13 5 C-13.05447047 6.41623216 -13.09300508 7.83308191 -13.125 9.25 C-13.15980469 10.43335938 -13.15980469 10.43335938 -13.1953125 11.640625 C-12.98242698 14.21228208 -12.1552391 15.72835336 -11 18 C-11.33 18.66 -11.66 19.32 -12 20 C-12.66 20 -13.32 20 -14 20 C-16.62344952 14.85803895 -17.60863095 11.7910714 -16 6 C-14.16137708 3.04507031 -12.67251431 1.39987337 -9.6875 -0.375 C-6.04086863 -1.22305381 -3.62591102 -0.95418711 0 0 Z " fill="#74BC71" transform="translate(243,219)"/>
<path d="M0 0 C0.99 0.33 1.98 0.66 3 1 C0.70738692 9.02414577 -3.41616207 14.18560711 -10.5703125 18.578125 C-14.69536504 20.7206896 -18.39998866 22.22379915 -23 23 C-23 22.34 -23 21.68 -23 21 C-23.66 20.67 -24.32 20.34 -25 20 C-22.03 19.67 -19.06 19.34 -16 19 C-16 18.34 -16 17.68 -16 17 C-14.68 17 -13.36 17 -12 17 C-11.67 15.02 -11.34 13.04 -11 11 C-10.34 11 -9.68 11 -9 11 C-8.34 9.68 -7.68 8.36 -7 7 C-5.68 7 -4.36 7 -3 7 C-2.87625 6.21625 -2.7525 5.4325 -2.625 4.625 C-2 2 -2 2 0 0 Z " fill="#48AB59" transform="translate(309,266)"/>
<path d="M0 0 C0.33 0 0.66 0 1 0 C1.33 18.81 1.66 37.62 2 57 C1.01 57.495 1.01 57.495 0 58 C-0.4021875 59.11375 -0.4021875 59.11375 -0.8125 60.25 C-2.26830812 63.62134511 -4.32061465 65.53214507 -7 68 C-7.33 67.34 -7.66 66.68 -8 66 C-7.13375 64.63875 -7.13375 64.63875 -6.25 63.25 C0.88019676 51.09475603 -0.46148706 35.20318739 -0.3125 21.625 C-0.27925722 19.52081301 -0.24476138 17.41664543 -0.20898438 15.3125 C-0.12488765 10.20844196 -0.0577077 5.1044218 0 0 Z " fill="#43A699" transform="translate(322,206)"/>
<path d="M0 0 C0.66 0.33 1.32 0.66 2 1 C1.67 2.98 1.34 4.96 1 7 C1.66 7.33 2.32 7.66 3 8 C2.01 8 1.02 8 0 8 C-0.33 9.32 -0.66 10.64 -1 12 C-1.66 12 -2.32 12 -3 12 C-3.33 13.98 -3.66 15.96 -4 18 C-5.65 18 -7.3 18 -9 18 C-9.33 16.35 -9.66 14.7 -10 13 C-11.65 13.66 -13.3 14.32 -15 15 C-14.67 14.01 -14.34 13.02 -14 12 C-13.23945313 11.92652344 -12.47890625 11.85304688 -11.6953125 11.77734375 C-8.25466042 10.78503974 -7.65601509 9.60385091 -5.875 6.5625 C-4.00640018 3.41618192 -3.11839449 2.07892966 0 0 Z " fill="#32B047" transform="translate(301,265)"/>
<path d="M0 0 C0.82949158 -0.00029205 1.65898315 -0.00058411 2.51361084 -0.00088501 C5.25698282 0.00050899 8.00008363 0.01607346 10.7434082 0.03173828 C12.64484 0.03546816 14.54627372 0.03831525 16.44770813 0.04031372 C21.45367738 0.04795213 26.45953068 0.06760244 31.4654541 0.08972168 C36.57306347 0.11017561 41.68069156 0.11931447 46.78833008 0.12939453 C56.81116749 0.15084811 66.83391883 0.18498659 76.85668945 0.22705078 C76.85668945 0.55705078 76.85668945 0.88705078 76.85668945 1.22705078 C75.90170563 1.23291702 74.9467218 1.23878326 73.96279907 1.24482727 C64.93003977 1.30222627 55.89751724 1.37507654 46.86499977 1.46276569 C42.22211086 1.50735084 37.57930731 1.54663261 32.9362793 1.57348633 C28.44922684 1.5996382 23.96250496 1.64012325 19.47565842 1.69023705 C17.77023835 1.70682582 16.06476121 1.71838956 14.359272 1.72466469 C5.51303152 1.76048392 -2.81759953 1.80599962 -11.14331055 5.22705078 C-11.14331055 4.23705078 -11.14331055 3.24705078 -11.14331055 2.22705078 C-7.36075431 -0.29465338 -4.37845287 -0.04015614 0 0 Z " fill="#75A863" transform="translate(200.143310546875,179.77294921875)"/>
<path d="M0 0 C0.66 0.33 1.32 0.66 2 1 C1.67 1.99 1.34 2.98 1 4 C0.34 4 -0.32 4 -1 4 C-1.33 4.99 -1.66 5.98 -2 7 C-2.99592119 8.00406224 -3.99625238 9.00376172 -5 10 C-6.12945408 11.861878 -6.12945408 11.861878 -7.0625 13.875 C-7.40152344 14.58011719 -7.74054688 15.28523437 -8.08984375 16.01171875 C-9.14344495 18.31336257 -10.10418457 20.63248779 -11 23 C-11.66666667 24.66666667 -12.33333333 26.33333333 -13 28 C-13.99 27.67 -14.98 27.34 -16 27 C-14.04645876 15.81153651 -9.20137703 6.90103277 0 0 Z " fill="#82C972" transform="translate(173,175)"/>
<path d="M0 0 C0.33 0 0.66 0 1 0 C1.60602151 5.75720437 -0.11391509 11.04733577 -3 16 C-5.140625 17.296875 -5.140625 17.296875 -7 18 C-7 18.99 -7 19.98 -7 21 C-7.66 21 -8.32 21 -9 21 C-9.33 21.66 -9.66 22.32 -10 23 C-11.1484375 21.296875 -11.1484375 21.296875 -12 19 C-11.1015625 16.640625 -11.1015625 16.640625 -9.625 14.25 C-9.14289063 13.45078125 -8.66078125 12.6515625 -8.1640625 11.828125 C-7.77992188 11.22484375 -7.39578125 10.6215625 -7 10 C-6.34 10 -5.68 10 -5 10 C-4.731875 9.46375 -4.46375 8.9275 -4.1875 8.375 C-2.79166667 5.58333333 -1.39583333 2.79166667 0 0 Z " fill="#09938A" transform="translate(322,263)"/>
<path d="M0 0 C9.1825306 2.58258673 15.36470294 11.17640338 20 19 C22.08388455 23.24166573 23.4490734 27.20988369 23 32 C21 29 21 29 21 27 C20.34 27 19.68 27 19 27 C18.34 24.03 17.68 21.06 17 18 C16.34 18 15.68 18 15 18 C14.67 16.02 14.34 14.04 14 12 C13.01 12 12.02 12 11 12 C11 11.34 11 10.68 11 10 C10.401875 9.731875 9.80375 9.46375 9.1875 9.1875 C7.00152146 8.00082594 5.58667406 6.90400887 4 5 C4 4.34 4 3.68 4 3 C2.68 2.67 1.36 2.34 0 2 C0 1.34 0 0.68 0 0 Z " fill="#83C66E" transform="translate(295,172)"/>
<path d="M0 0 C0.99 0.33 1.98 0.66 3 1 C5.92652431 1.06154722 8.8286372 1.06758292 11.75390625 1.02734375 C13.51236786 1.01470261 15.2708315 1.00234128 17.02929688 0.99023438 C19.80336811 0.96535813 22.57733459 0.93732208 25.35131836 0.90405273 C28.02718802 0.8739495 30.70292186 0.85611032 33.37890625 0.83984375 C34.21224991 0.82638412 35.04559357 0.8129245 35.90419006 0.79905701 C37.93721087 0.79014741 39.97015957 0.88597883 42 1 C42.66 1.66 43.32 2.32 44 3 C28.82 3 13.64 3 -2 3 C-1.34 2.67 -0.68 2.34 0 2 C0 1.34 0 0.68 0 0 Z " fill="#11918F" transform="translate(228,307)"/>
<path d="M0 0 C-0.66 0.33 -1.32 0.66 -2 1 C-1.34 1.66 -0.68 2.32 0 3 C-3.23463882 4.907673 -5.67712004 5.26650168 -9.41113281 5.31884766 C-10.49195129 5.33871735 -11.57276978 5.35858704 -12.68634033 5.37905884 C-14.42714874 5.39638565 -14.42714874 5.39638565 -16.203125 5.4140625 C-17.39605164 5.43342865 -18.58897827 5.4527948 -19.8180542 5.4727478 C-23.62863004 5.53253267 -27.4392361 5.57892527 -31.25 5.625 C-33.83334652 5.66318072 -36.41668032 5.7022325 -39 5.7421875 C-45.33322046 5.83823344 -51.66651749 5.92328436 -58 6 C-57.67 5.34 -57.34 4.68 -57 4 C-40.17 4 -23.34 4 -6 4 C-6.495 2.515 -6.495 2.515 -7 1 C-3.375 -1.125 -3.375 -1.125 0 0 Z " fill="#088A8A" transform="translate(295,295)"/>
<path d="M0 0 C0.33 0 0.66 0 1 0 C1 14.19 1 28.38 1 43 C1.66 43.33 2.32 43.66 3 44 C2.01 46.97 1.02 49.94 0 53 C-0.66 53 -1.32 53 -2 53 C-2.495 55.475 -2.495 55.475 -3 58 C-3.66 58 -4.32 58 -5 58 C-3.66666667 54 -2.33333333 50 -1 46 C-0.88599048 44.48165793 -0.82387323 42.95910409 -0.79467773 41.43676758 C-0.7647599 40.05567558 -0.7647599 40.05567558 -0.73423767 38.64668274 C-0.71752518 37.65597275 -0.70081268 36.66526276 -0.68359375 35.64453125 C-0.66281265 34.62775803 -0.64203156 33.6109848 -0.62062073 32.56340027 C-0.55519952 29.31316937 -0.49627463 26.06285723 -0.4375 22.8125 C-0.39430773 20.61001762 -0.35069321 18.40754347 -0.30664062 16.20507812 C-0.19952573 10.80347147 -0.09774543 5.40178388 0 0 Z " fill="#6EAC6D" transform="translate(302,207)"/>
<path d="M0 0 C0.99 0.66 1.98 1.32 3 2 C1.35 2.33 -0.3 2.66 -2 3 C-2 3.99 -2 4.98 -2 6 C-3.32 6.33 -4.64 6.66 -6 7 C-6.144375 7.61875 -6.28875 8.2375 -6.4375 8.875 C-7 11 -7 11 -8 13 C-9.32467746 13.6837045 -10.65863633 14.34964186 -12 15 C-12.66 15.66 -13.32 16.32 -14 17 C-14.66 17 -15.32 17 -16 17 C-16.33 15.68 -16.66 14.36 -17 13 C-11.44362331 8.49452755 -5.87337525 4.08582626 0 0 Z " fill="#50AF68" transform="translate(231,278)"/>
<path d="M0 0 C0.66 0.66 1.32 1.32 2 2 C0.02 2 -1.96 2 -4 2 C-4 2.66 -4 3.32 -4 4 C-7 6 -7 6 -12 6 C-11.67 10.62 -11.34 15.24 -11 20 C-14.5761877 16.4238123 -14.83167183 14.96568113 -15 10 C-12.63761875 2.91285626 -7.58385877 -1.03416256 0 0 Z " fill="#80C27F" transform="translate(207,218)"/>
<path d="M0 0 C0 0.33 0 0.66 0 1 C-0.92232422 1.07347656 -0.92232422 1.07347656 -1.86328125 1.1484375 C-2.67152344 1.22320312 -3.47976562 1.29796875 -4.3125 1.375 C-5.51326172 1.47941406 -5.51326172 1.47941406 -6.73828125 1.5859375 C-9.27224441 1.89564426 -9.27224441 1.89564426 -12 4 C-13.98248715 4.71706982 -15.98415349 5.38290413 -18 6 C-18.99 6.309375 -18.99 6.309375 -20 6.625 C-22.68246186 7.1279616 -25.27842214 7.06185404 -28 7 C-20.6200967 -1.1505894 -10.08797459 -0.48422278 0 0 Z " fill="#88CB6E" transform="translate(203,168)"/>
<path d="M0 0 C2.475 0.495 2.475 0.495 5 1 C5.33 1.99 5.66 2.98 6 4 C8.00016466 5.20882096 8.00016466 5.20882096 10 6 C10 6.66 10 7.32 10 8 C10.66 8 11.32 8 12 8 C12.33 9.32 12.66 10.64 13 12 C12.01 12.33 11.02 12.66 10 13 C8.9375 11.125 8.9375 11.125 8 9 C8.33 8.34 8.66 7.68 9 7 C7.35 7 5.7 7 4 7 C3.34 8.32 2.68 9.64 2 11 C0.80712589 7.12315913 0 4.08378077 0 0 Z " fill="#2BCFA6" transform="translate(322,195)"/>
<path d="M0 0 C2 2 2 2 2.24050903 4.32852173 C2.23606781 5.3011496 2.23162659 6.27377747 2.22705078 7.27587891 C2.22689972 8.3768692 2.22674866 9.4778595 2.22659302 10.61221313 C2.21627045 11.80494843 2.20594788 12.99768372 2.1953125 14.2265625 C2.1924826 15.44451508 2.18965271 16.66246765 2.18673706 17.91732788 C2.17551256 21.81998383 2.15040372 25.72241303 2.125 29.625 C2.11497314 32.26562169 2.10584678 34.90624697 2.09765625 37.546875 C2.07556581 44.0313278 2.04206592 50.5156477 2 57 C1.67 57 1.34 57 1 57 C0.85705451 49.52523791 0.71469847 42.05046476 0.57275391 34.57568359 C0.52438744 32.03238673 0.47588561 29.48909244 0.42724609 26.94580078 C0.3573919 23.29199885 0.28802315 19.63818798 0.21875 15.984375 C0.19687622 14.84570984 0.17500244 13.70704468 0.15246582 12.53387451 C0.13244507 11.47307678 0.11242432 10.41227905 0.09179688 9.31933594 C0.07403198 8.38667908 0.05626709 7.45402222 0.03796387 6.49310303 C0.00500909 4.32894925 0 2.16440467 0 0 Z " fill="#58B858" transform="translate(315,199)"/>
<path d="M0 0 C0.12375 0.639375 0.2475 1.27875 0.375 1.9375 C0.58125 2.618125 0.7875 3.29875 1 4 C1.66 4.33 2.32 4.66 3 5 C2.7834375 5.85271484 2.7834375 5.85271484 2.5625 6.72265625 C1.08090346 12.8856863 0.01638961 18.80121752 2 25 C2.99 25 3.98 25 5 25 C5 25.66 5 26.32 5 27 C3.02 26.67 1.04 26.34 -1 26 C-1.02886751 21.85418113 -1.04675327 17.70838784 -1.0625 13.5625 C-1.07087891 12.37849609 -1.07925781 11.19449219 -1.08789062 9.97460938 C-1.09111328 8.84990234 -1.09433594 7.72519531 -1.09765625 6.56640625 C-1.10289307 5.52427979 -1.10812988 4.48215332 -1.11352539 3.40844727 C-1 1 -1 1 0 0 Z " fill="#319F52" transform="translate(195,290)"/>
<path d="M0 0 C3.38231081 1.39957689 5.27928642 2.73064421 7 6 C7.51804578 11.43948065 7.37318554 14.50241928 4 19 C3.34 17.68 2.68 16.36 2 15 C2.33 14.67 2.66 14.34 3 14 C3.39120525 8.91433169 2.87287952 6.18961597 0 2 C0 1.34 0 0.68 0 0 Z " fill="#6DB66D" transform="translate(209,220)"/>
<path d="M0 0 C0 0.66 0 1.32 0 2 C-3.34383095 2.75768832 -6.36555808 3.10663906 -9.7902832 3.02172852 C-10.71086014 3.00163223 -11.63143707 2.98153595 -12.57991028 2.96083069 C-13.5602977 2.93379562 -14.54068512 2.90676056 -15.55078125 2.87890625 C-16.56472458 2.85529526 -17.57866791 2.83168427 -18.62333679 2.80735779 C-21.85320845 2.73095062 -25.08282638 2.64682756 -28.3125 2.5625 C-30.50584707 2.50925635 -32.69920643 2.45651611 -34.89257812 2.40429688 C-40.26187481 2.27536661 -45.63098392 2.14010538 -51 2 C-51 1.67 -51 1.34 -51 1 C-44.54046276 0.85681665 -38.08090706 0.71448936 -31.62133789 0.57275391 C-29.42439345 0.52444804 -27.22745329 0.47594704 -25.03051758 0.42724609 C-21.87061656 0.35723246 -18.71070076 0.28792321 -15.55078125 0.21875 C-14.57039383 0.19687622 -13.59000641 0.17500244 -12.57991028 0.15246582 C-11.65933334 0.13244507 -10.73875641 0.11242432 -9.7902832 0.09179688 C-8.9842012 0.07403198 -8.1781192 0.05626709 -7.34761047 0.03796387 C-4.89799899 -0.00164949 -2.44988819 -0.00638722 0 0 Z " fill="#84B88F" transform="translate(284,276)"/>
<path d="M0 0 C0.66 0 1.32 0 2 0 C2 0.66 2 1.32 2 2 C4.64 2 7.28 2 10 2 C10.96541545 5.18554592 11.05239684 7.88752707 10.87890625 11.203125 C10.83056641 12.1828125 10.78222656 13.1625 10.73242188 14.171875 C10.67634766 15.18765625 10.62027344 16.2034375 10.5625 17.25 C10.51029297 18.28125 10.45808594 19.3125 10.40429688 20.375 C10.27484366 22.91699039 10.13988672 25.45856593 10 28 C9.67 28 9.34 28 9 28 C9 20.41 9 12.82 9 5 C6.36 4.67 3.72 4.34 1 4 C0.34 3.01 -0.32 2.02 -1 1 C-0.67 0.67 -0.34 0.34 0 0 Z " fill="#6DB07E" transform="translate(184,285)"/>
<path d="M0 0 C3.9998593 -0.08783475 7.99946704 -0.14067102 12 -0.1875 C13.12535156 -0.21263672 14.25070312 -0.23777344 15.41015625 -0.26367188 C22.03083534 -0.32174801 26.98062008 0.1894807 33 3 C32.01 3.66 31.02 4.32 30 5 C30 4.34 30 3.68 30 3 C28.38544922 3.03480469 28.38544922 3.03480469 26.73828125 3.0703125 C17.58001262 3.20497745 9.01929422 2.75680166 0 1 C0 0.67 0 0.34 0 0 Z " fill="#8CC870" transform="translate(262,168)"/>
<path d="M0 0 C2.76276177 0.52268466 5.3260876 1.10869587 8 2 C8 1.34 8 0.68 8 0 C8.66 0 9.32 0 10 0 C10 1.98 10 3.96 10 6 C10.66 6 11.32 6 12 6 C12.33 7.65 12.66 9.3 13 11 C9.54691313 9.48729451 7.04375621 7.45279358 4.25 4.9375 C3.45078125 4.22464844 2.6515625 3.51179688 1.828125 2.77734375 C1.22484375 2.19082031 0.6215625 1.60429687 0 1 C0 0.67 0 0.34 0 0 Z " fill="#3E9796" transform="translate(283,323)"/>
<path d="M0 0 C0.66 0.33 1.32 0.66 2 1 C1.505 1.680625 1.01 2.36125 0.5 3.0625 C-1.34127336 6.66832699 -1.3641066 8.99482745 -1 13 C-0.00916033 15.23408113 -0.00916033 15.23408113 1 17 C0.67 17.66 0.34 18.32 0 19 C-0.66 19 -1.32 19 -2 19 C-4.62344952 13.85803895 -5.60863095 10.7910714 -4 5 C-1.9375 2.0625 -1.9375 2.0625 0 0 Z " fill="#83C082" transform="translate(231,220)"/>
<path d="M0 0 C1 3 1 3 -0.125 5.375 C-2.23637788 8.33092903 -4.17469108 10.70032995 -7 13 C-10.3125 13.3125 -10.3125 13.3125 -13 13 C-10.74457779 10.65783078 -8.46102544 8.56002077 -5.9375 6.5 C-3.50336652 4.42839704 -1.75648896 2.63473344 0 0 Z " fill="#429996" transform="translate(313,274)"/>
<path d="M0 0 C1.875 0.5625 1.875 0.5625 4 2 C5.44239217 5.89445887 6 8.83522036 6 13 C4.02 13 2.04 13 0 13 C0.33 12.34 0.66 11.68 1 11 C1.17048367 7.16411738 0.87878525 3.7348373 0 0 Z " fill="#4AC8AA" transform="translate(337,210)"/>
<path d="M0 0 C5.77759884 -0.12036664 11.27959989 0.1679418 17 1 C16.67 1.66 16.34 2.32 16 3 C10.39 3 4.78 3 -1 3 C-0.67 2.01 -0.34 1.02 0 0 Z " fill="#047F86" transform="translate(239,296)"/>
<path d="M0 0 C-0.99 0.7734375 -0.99 0.7734375 -2 1.5625 C-5.75333644 4.61208585 -9.37602035 7.7986681 -13 11 C-13.33 10.01 -13.66 9.02 -14 8 C-13.67 7.34 -13.34 6.68 -13 6 C-12.01 6 -11.02 6 -10 6 C-10 5.01 -10 4.02 -10 3 C-9.01 3 -8.02 3 -7 3 C-7 2.34 -7 1.68 -7 1 C-3.375 -1.125 -3.375 -1.125 0 0 Z " fill="#5EAD75" transform="translate(215,305)"/>
<path d="M0 0 C0 0.66 0 1.32 0 2 C-0.66 2 -1.32 2 -2 2 C-2 2.66 -2 3.32 -2 4 C-5.37097383 5.49821059 -7.20442119 6 -11 6 C-10.67 4.35 -10.34 2.7 -10 1 C-6.59437148 0.22157062 -3.49234244 -0.09978121 0 0 Z " fill="#0B968D" transform="translate(318,305)"/>
<path d="M0 0 C0.33 0.66 0.66 1.32 1 2 C1.99 2.33 2.98 2.66 4 3 C4.94921875 5.06640625 4.94921875 5.06640625 5.6875 7.5625 C5.93886719 8.38878906 6.19023437 9.21507812 6.44921875 10.06640625 C6.63097656 10.70449219 6.81273437 11.34257812 7 12 C3.34683329 10.75023244 2.21934164 10.32901247 0 7 C-0.07905064 4.66800612 -0.08798769 2.33167378 0 0 Z " fill="#4EB060" transform="translate(161,262)"/>
<path d="M0 0 C2 2 2 2 2 5 C2.66 5 3.32 5 4 5 C4 5.66 4 6.32 4 7 C4.99 7 5.98 7 7 7 C7 7.66 7 8.32 7 9 C10.3 9 13.6 9 17 9 C17 9.66 17 10.32 17 11 C15.41676312 11.027193 13.83338938 11.04648306 12.25 11.0625 C10.92742187 11.07990234 10.92742187 11.07990234 9.578125 11.09765625 C7.15349202 11.00581409 5.25418831 10.89475457 3 10 C1.18721244 6.5039097 0 3.96018245 0 0 Z " fill="#54B251" transform="translate(260,229)"/>
<path d="M0 0 C0.74958984 0.00902344 1.49917969 0.01804688 2.27148438 0.02734375 C4.11862654 0.05087422 5.96560412 0.08674439 7.8125 0.125 C7.8125 0.455 7.8125 0.785 7.8125 1.125 C7.02746094 1.24617187 6.24242187 1.36734375 5.43359375 1.4921875 C-0.23801213 2.39686083 -5.71242254 3.3829299 -11.1875 5.125 C-11.1875 4.135 -11.1875 3.145 -11.1875 2.125 C-7.39586973 -0.40275351 -4.37875969 -0.09943035 0 0 Z " fill="#80BF6D" transform="translate(200.1875,179.875)"/>
<path d="M0 0 C2.125 0.9375 2.125 0.9375 4 2 C3.34 3.65 2.68 5.3 2 7 C2.66 7.66 3.32 8.32 4 9 C1.525 10.485 1.525 10.485 -1 12 C-2.46726798 8.18510326 -1.43336419 5.70988378 0 2 C-0.66 1.67 -1.32 1.34 -2 1 C-1.34 0.67 -0.68 0.34 0 0 Z " fill="#44B060" transform="translate(227,284)"/>
<path d="M0 0 C5.75 -0.125 5.75 -0.125 8 1 C8 1.66 8 2.32 8 3 C7.01 3.495 7.01 3.495 6 4 C5.67 4.99 5.34 5.98 5 7 C3.68 6.67 2.36 6.34 1 6 C0.67 4.02 0.34 2.04 0 0 Z " fill="#0F988F" transform="translate(321,297)"/>
<path d="M0 0 C3.9252025 3.70090521 6.94580156 7.54959656 10 12 C9.67 12.66 9.34 13.32 9 14 C7.0625 13.375 7.0625 13.375 5 12 C4.25 8.875 4.25 8.875 4 6 C3.34 6 2.68 6 2 6 C0 3 0 3 0 0 Z " fill="#6ACEB6" transform="translate(330,197)"/>
<path d="M0 0 C0.66 0.66 1.32 1.32 2 2 C1.625 4.625 1.625 4.625 1 7 C-0.65 6.67 -2.3 6.34 -4 6 C-4.33 5.01 -4.66 4.02 -5 3 C-3.35 2.01 -1.7 1.02 0 0 Z " fill="#398A8D" transform="translate(304,333)"/>
<path d="M0 0 C0.66 0 1.32 0 2 0 C2.33 0.99 2.66 1.98 3 3 C1.890625 4.7890625 1.890625 4.7890625 0.25 6.625 C-0.28109375 7.23601562 -0.8121875 7.84703125 -1.359375 8.4765625 C-3 10 -3 10 -6 11 C-5.67 9.68 -5.34 8.36 -5 7 C-4.34 7 -3.68 7 -3 7 C-3.33 6.01 -3.66 5.02 -4 4 C-3.01 4 -2.02 4 -1 4 C-0.67 2.68 -0.34 1.36 0 0 Z " fill="#58A9A3" transform="translate(332,293)"/>
<path d="M0 0 C1.32 0.33 2.64 0.66 4 1 C4 2.65 4 4.3 4 6 C5.32 6.66 6.64 7.32 8 8 C7.67 10.64 7.34 13.28 7 16 C6.72414063 15.44570312 6.44828125 14.89140625 6.1640625 14.3203125 C5.35458166 12.70678358 4.53620153 11.09770115 3.7109375 9.4921875 C3.27007812 8.62851563 2.82921875 7.76484375 2.375 6.875 C1.70597656 5.57175781 1.70597656 5.57175781 1.0234375 4.2421875 C0 2 0 2 0 0 Z " fill="#96CD8C" transform="translate(295,191)"/>
<path d="M0 0 C1.98 0 3.96 0 6 0 C3.57804552 2.87255066 1.40257297 3.70838919 -2.1875 4.6875 C-3.08855469 4.93886719 -3.98960937 5.19023437 -4.91796875 5.44921875 C-5.60503906 5.63097656 -6.29210937 5.81273437 -7 6 C-7 5.34 -7 4.68 -7 4 C-7.66 3.67 -8.32 3.34 -9 3 C-4.545 2.505 -4.545 2.505 0 2 C0 1.34 0 0.68 0 0 Z " fill="#62AE6E" transform="translate(293,283)"/>
<path d="M0 0 C0.33 0 0.66 0 1 0 C0.9278125 0.61488281 0.855625 1.22976563 0.78125 1.86328125 C0.6884375 2.67152344 0.595625 3.47976563 0.5 4.3125 C0.4071875 5.11300781 0.314375 5.91351563 0.21875 6.73828125 C-0.04813463 9.11896555 -0.04813463 9.11896555 0 12 C-2.5 14.6875 -2.5 14.6875 -5 17 C-5.33 16.34 -5.66 15.68 -6 15 C-5.03265451 13.33216294 -4.06075563 11.66668313 -3.05859375 10.01953125 C-1.37251974 6.80292511 -0.74581366 3.54261487 0 0 Z " fill="#61A8A4" transform="translate(320,257)"/>
<path d="M0 0 C2.0625 0.4375 2.0625 0.4375 4 1 C4 2.32 4 3.64 4 5 C4.66 5 5.32 5 6 5 C6 5.66 6 6.32 6 7 C4.1875 7.625 4.1875 7.625 2 8 C1.01 7.34 0.02 6.68 -1 6 C-1.25 3.4375 -1.25 3.4375 -1 1 C-0.67 0.67 -0.34 0.34 0 0 Z " fill="#64CD4D" transform="translate(306,185)"/>
<path d="M0 0 C0.66 0.33 1.32 0.66 2 1 C1.01 3.97 0.02 6.94 -1 10 C-1.66 10 -2.32 10 -3 10 C-3.33 11.65 -3.66 13.3 -4 15 C-4.66 15 -5.32 15 -6 15 C-4.36041242 9.76727367 -2.61047965 4.84803364 0 0 Z " fill="#7DBF82" transform="translate(303,250)"/>
<path d="M0 0 C0.99 0.33 1.98 0.66 3 1 C3.6875 4.3125 3.6875 4.3125 4 8 C2.5625 9.9375 2.5625 9.9375 1 11 C-0.17571451 7.32589215 -0.07366746 3.83070817 0 0 Z " fill="#73BB70" transform="translate(280,223)"/>
<path d="M0 0 C0.66 0.33 1.32 0.66 2 1 C-0.98648649 9.95945946 -0.98648649 9.95945946 -5 13 C-7.25 13.75 -7.25 13.75 -9 14 C-9 13.34 -9 12.68 -9 12 C-8.34 12 -7.68 12 -7 12 C-6.67 11.01 -6.34 10.02 -6 9 C-5.01 9 -4.02 9 -3 9 C-2.67 7.35 -2.34 5.7 -2 4 C-1.34 4 -0.68 4 0 4 C0 2.68 0 1.36 0 0 Z " fill="#57B463" transform="translate(302,256)"/>
<path d="M0 0 C0.33 0 0.66 0 1 0 C1 4.29 1 8.58 1 13 C0.01 13.495 0.01 13.495 -1 14 C-2.01522809 9.37507206 -1.9109468 5.64582868 -1 1 C-0.67 0.67 -0.34 0.34 0 0 Z " fill="#26A1A3" transform="translate(306,321)"/>
<path d="M0 0 C1.98 0 3.96 0 6 0 C5.01 0.495 5.01 0.495 4 1 C4 1.66 4 2.32 4 3 C2.25 4.2890625 2.25 4.2890625 0 5.625 C-0.7425 6.07101562 -1.485 6.51703125 -2.25 6.9765625 C-2.8275 7.31429688 -3.405 7.65203125 -4 8 C-3.625 5.5625 -3.625 5.5625 -3 3 C-2.34 2.67 -1.68 2.34 -1 2 C-0.67 1.34 -0.34 0.68 0 0 Z " fill="#5FAF77" transform="translate(220,296)"/>
<path d="M0 0 C5.62917348 0.40208382 8.00386479 2.28930302 12 6 C11.67 6.66 11.34 7.32 11 8 C10.34 8 9.68 8 9 8 C9 7.34 9 6.68 9 6 C8.34 6 7.68 6 7 6 C7 5.34 7 4.68 7 4 C6.030625 3.71125 5.06125 3.4225 4.0625 3.125 C1 2 1 2 0 0 Z " fill="#95CB82" transform="translate(284,183)"/>
<path d="M0 0 C1.65 0 3.3 0 5 0 C1.66666667 3.33333333 -1.66666667 6.66666667 -5 10 C-4.67 8.35 -4.34 6.7 -4 5 C-3.34 5 -2.68 5 -2 5 C-2 4.01 -2 3.02 -2 2 C-1.34 2 -0.68 2 0 2 C0 1.34 0 0.68 0 0 Z " fill="#99CC88" transform="translate(184,185)"/>
<path d="M0 0 C0.33 0.99 0.66 1.98 1 3 C-2.07999946 6.67230705 -4.2482602 7.56802365 -9 8 C-6.14723863 5.06799526 -3.34920216 2.35684596 0 0 Z " fill="#448C90" transform="translate(227,299)"/>
<path d="M0 0 C1.46063143 0.78741859 2.91843173 1.5800905 4.375 2.375 C5.59316406 3.03628906 5.59316406 3.03628906 6.8359375 3.7109375 C9 5 9 5 11 7 C3.58358663 7.36474164 3.58358663 7.36474164 1 5.75 C0 4 0 4 0 0 Z " fill="#6BBB7D" transform="translate(183,269)"/>
<path d="M0 0 C1.32 0.33 2.64 0.66 4 1 C1.42589181 3.47114386 0.12402615 3.98892624 -3.5 4.3125 C-6.6490748 4.03133261 -8.38237988 3.67527688 -11 2 C-8.47946405 0.73973202 -7.1457902 1.08125555 -4.375 1.4375 C-3.14910156 1.59025391 -3.14910156 1.59025391 -1.8984375 1.74609375 C-0.95871094 1.87177734 -0.95871094 1.87177734 0 2 C0 1.34 0 0.68 0 0 Z " fill="#80BD81" transform="translate(242,238)"/>
<path d="M0 0 C4.59306496 1.4859916 7.43569245 3.85014682 11 7 C10.01 7.33 9.02 7.66 8 8 C5.8125 6.6875 5.8125 6.6875 4 5 C4 4.34 4 3.68 4 3 C2.68 2.67 1.36 2.34 0 2 C0 1.34 0 0.68 0 0 Z " fill="#94C97A" transform="translate(295,172)"/>
<path d="M0 0 C0.33 0 0.66 0 1 0 C1.40368295 6.45892714 0.5915262 11.06108578 -2 17 C-3.07174763 13.34811918 -2.76411467 10.73567172 -2 7 C-1.34 7 -0.68 7 0 7 C0 4.69 0 2.38 0 0 Z " fill="#70B278" transform="translate(317,249)"/>
<path d="M0 0 C1.1875 1.5 1.1875 1.5 2 4 C1.27101296 6.78824238 0.1843275 9.37665092 -1 12 C-1.66 11.67 -2.32 11.34 -3 11 C-3 9.02 -3 7.04 -3 5 C-2.34 5 -1.68 5 -1 5 C-0.67 3.35 -0.34 1.7 0 0 Z " fill="#8EC881" transform="translate(177,193)"/>
<path d="M0 0 C0.66 0.33 1.32 0.66 2 1 C1.67 1.99 1.34 2.98 1 4 C0.34 4 -0.32 4 -1 4 C-1.33 4.99 -1.66 5.98 -2 7 C-3.65 7.33 -5.3 7.66 -7 8 C-5.50902342 4.2047869 -3.24299151 2.38957269 0 0 Z " fill="#98D084" transform="translate(173,175)"/>
<path d="M0 0 C0.99 0.33 1.98 0.66 3 1 C2.8125 2.875 2.8125 2.875 2 5 C-0.5625 6.25 -0.5625 6.25 -3 7 C-2.25 2.25 -2.25 2.25 0 0 Z " fill="#3BAF4F" transform="translate(309,266)"/>
<path d="M0 0 C2.52282655 2.52282655 5 5.30389793 5 9 C3.68 9.33 2.36 9.66 1 10 C-0.04005702 6.61981469 -0.08004482 3.5219721 0 0 Z " fill="#72BA7E" transform="translate(176,258)"/>
<path d="M0 0 C0.99 0 1.98 0 3 0 C3 0.99 3 1.98 3 3 C3.66 3 4.32 3 5 3 C5 3.66 5 4.32 5 5 C6.98 5 8.96 5 11 5 C11 5.33 11 5.66 11 6 C5.97745369 6.2954439 3.10457614 5.98514628 -1 3 C-0.67 2.01 -0.34 1.02 0 0 Z " fill="#7CBF7D" transform="translate(197,236)"/>
<path d="M0 0 C0.66 0.33 1.32 0.66 2 1 C0.68 3.64 -0.64 6.28 -2 9 C-2.66 8.67 -3.32 8.34 -4 8 C-3.67 7.01 -3.34 6.02 -3 5 C-3.66 4.67 -4.32 4.34 -5 4 C-3.35 2.68 -1.7 1.36 0 0 Z " fill="#5AB174" transform="translate(212,293)"/>
<path d="M0 0 C0 0.66 0 1.32 0 2 C-0.66 2.66 -1.32 3.32 -2 4 C-2 4.66 -2 5.32 -2 6 C-4.97 5.67 -7.94 5.34 -11 5 C-9.68 4.34 -8.36 3.68 -7 3 C-5.700625 2.195625 -5.700625 2.195625 -4.375 1.375 C-2 0 -2 0 0 0 Z " fill="#489998" transform="translate(300,287)"/>
<path d="M0 0 C-0.66 0 -1.32 0 -2 0 C-2 0.66 -2 1.32 -2 2 C-4.99480917 2.8723412 -7.63575911 3.10829766 -10.75 3.0625 C-11.54921875 3.05347656 -12.3484375 3.04445313 -13.171875 3.03515625 C-13.77515625 3.02355469 -14.3784375 3.01195312 -15 3 C-15 2.67 -15 2.34 -15 2 C-12.36 2 -9.72 2 -7 2 C-7 1.34 -7 0.68 -7 0 C-3.86650268 -1.04449911 -3.01031744 -0.93423645 0 0 Z " fill="#318586" transform="translate(289,293)"/>
<path d="M0 0 C3 3.75 3 3.75 3 6 C3.99 6 4.98 6 6 6 C6 6.66 6 7.32 6 8 C3.03 7.505 3.03 7.505 0 7 C0 4.69 0 2.38 0 0 Z " fill="#56A874" transform="translate(194,309)"/>
<path d="M0 0 C3.34249629 0.59687434 5.46436342 1.73603877 8 4 C8 4.66 8 5.32 8 6 C2.33846154 4.52307692 2.33846154 4.52307692 0.625 1.875 C0.41875 1.25625 0.2125 0.6375 0 0 Z " fill="#6BB67B" transform="translate(176,282)"/>
<path d="M0 0 C0.66 0 1.32 0 2 0 C3.42258812 3.82320557 4.24042276 6.91281305 4 11 C2 8 2 8 2 6 C1.34 6 0.68 6 0 6 C0 4.02 0 2.04 0 0 Z " fill="#8AC480" transform="translate(314,193)"/>
<path d="M0 0 C0.33 1.32 0.66 2.64 1 4 C-1.31 5.98 -3.62 7.96 -6 10 C-4.66666667 7.33333333 -3.33333333 4.66666667 -2 2 C-1.34 2 -0.68 2 0 2 C0 1.34 0 0.68 0 0 Z " fill="#148981" transform="translate(317,271)"/>
<path d="M0 0 C0.33 0 0.66 0 1 0 C1.2493357 1.60115576 1.47378648 3.20620159 1.6875 4.8125 C1.87892578 6.15248047 1.87892578 6.15248047 2.07421875 7.51953125 C2 10 2 10 0.51953125 11.82421875 C-0.23263672 12.40623047 -0.23263672 12.40623047 -1 13 C-1.042721 11.33388095 -1.04063832 9.66617115 -1 8 C-0.67 7.67 -0.34 7.34 0 7 C0.04092937 4.66702567 0.04241723 2.33294775 0 0 Z " fill="#68B162" transform="translate(247,226)"/>
<path d="M0 0 C0.66 0.33 1.32 0.66 2 1 C0.54728878 4.75283733 0.54728878 4.75283733 -1.9375 5.875 C-4 6 -4 6 -7 4 C-5.35 3.67 -3.7 3.34 -2 3 C-2 2.34 -2 1.68 -2 1 C-1.34 0.67 -0.68 0.34 0 0 Z " fill="#117D7A" transform="translate(302,286)"/>
<path d="M0 0 C0.99 0.66 1.98 1.32 3 2 C1.35 2.33 -0.3 2.66 -2 3 C-2.33 3.99 -2.66 4.98 -3 6 C-4.32 5.67 -5.64 5.34 -7 5 C-4.69 3.35 -2.38 1.7 0 0 Z " fill="#76BE84" transform="translate(231,278)"/>
<path d="M0 0 C0.66 0.33 1.32 0.66 2 1 C1.4375 2.9375 1.4375 2.9375 0 5 C-3.625 5.75 -3.625 5.75 -7 6 C-4.83312509 3.72478134 -2.54379491 1.84205838 0 0 Z " fill="#7DBD84" transform="translate(291,270)"/>
<path d="M0 0 C2.375 -0.125 2.375 -0.125 5 0 C5.66 0.66 6.32 1.32 7 2 C6.625 4.125 6.625 4.125 6 6 C3.97945196 4.35830472 1.97956942 2.69088222 0 1 C0 0.67 0 0.34 0 0 Z " fill="#409896" transform="translate(276,317)"/>
<path d="M0 0 C0.66 0 1.32 0 2 0 C1.44271087 3.34373475 0.64826111 6.03312999 -1 9 C-2.0326802 6.21176345 -2.04509293 5.1322726 -1.0625 2.25 C-0.711875 1.5075 -0.36125 0.765 0 0 Z " fill="#6EB2AA" transform="translate(340,281)"/>
<path d="M0 0 C2.475 0.495 2.475 0.495 5 1 C5 2.32 5 3.64 5 5 C2.525 4.01 2.525 4.01 0 3 C0 2.01 0 1.02 0 0 Z " fill="#49AE5E" transform="translate(178,267)"/>
<path d="M0 0 C2 2 2 2 2 5 C2.66 5 3.32 5 4 5 C4.33 6.65 4.66 8.3 5 10 C4.34 10 3.68 10 3 10 C0 3.375 0 3.375 0 0 Z " fill="#8EBD88" transform="translate(260,229)"/>
<path d="M0 0 C2.64 0 5.28 0 8 0 C7.01 1.485 7.01 1.485 6 3 C5.34 2.67 4.68 2.34 4 2 C3.34 2.66 2.68 3.32 2 4 C1.34 2.68 0.68 1.36 0 0 Z " fill="#6ECE56" transform="translate(280,170)"/>
<path d="M0 0 C2.64 0 5.28 0 8 0 C5.03312999 1.64826111 2.34373475 2.44271087 -1 3 C-0.67 2.01 -0.34 1.02 0 0 Z " fill="#1E8880" transform="translate(308,308)"/>
<path d="M0 0 C-0.33 1.32 -0.66 2.64 -1 4 C-2.98 4 -4.96 4 -7 4 C-4.83989616 0.75984424 -3.8842653 0 0 0 Z " fill="#267E81" transform="translate(222,306)"/>
<path d="M0 0 C2.4294516 3.6441774 2.16179575 5.71241272 2 10 C-0.77867692 7.22132308 -0.65193902 4.8286708 -1 1 C-0.67 0.67 -0.34 0.34 0 0 Z " fill="#8DC996" transform="translate(158,255)"/>
<path d="M0 0 C0.33 0.99 0.66 1.98 1 3 C-0.4375 5.6875 -0.4375 5.6875 -2 8 C-2.66 6.68 -3.32 5.36 -4 4 C-3.01 3.67 -2.02 3.34 -1 3 C-0.67 2.01 -0.34 1.02 0 0 Z " fill="#8BC18B" transform="translate(283,231)"/>
<path d="M0 0 C0.66 0.33 1.32 0.66 2 1 C1.39816251 3.02045442 0.72693904 5.02111039 0 7 C-0.99 7.495 -0.99 7.495 -2 8 C-2.33 6.68 -2.66 5.36 -3 4 C-2.34 3.67 -1.68 3.34 -1 3 C-0.67 2.01 -0.34 1.02 0 0 Z " fill="#83BE83" transform="translate(214,231)"/>
<path d="M0 0 C-0.33 1.32 -0.66 2.64 -1 4 C-2.98 4 -4.96 4 -7 4 C-3.17391304 0 -3.17391304 0 0 0 Z " fill="#A0D38B" transform="translate(182,171)"/>
</svg>
